<?xml version="1.0" encoding="UTF-8" standalone="no"?>
<!DOCTYPE svg PUBLIC "-//W3C//DTD SVG 1.1//EN" "http://www.w3.org/Graphics/SVG/1.1/DTD/svg11.dtd">
<svg width="100%" height="100%" viewBox="0 0 1080 1080" version="1.1" xmlns="http://www.w3.org/2000/svg" xmlns:xlink="http://www.w3.org/1999/xlink" xml:space="preserve" xmlns:serif="http://www.serif.com/" style="fill-rule:evenodd;clip-rule:evenodd;stroke-linejoin:round;stroke-miterlimit:2;">
    <g transform="matrix(2.892857,0,0,3.506494,-306.642857,-734.025974)">
        <rect x="106" y="209.333" width="373.333" height="308"/>
    </g>
    <g transform="matrix(2.071823,0,0,2.622378,-139.558011,-686.223776)">
        <rect x="207.333" y="372.267" width="241.333" height="190.667"/>
        <path d="M448.667,372.267L448.667,562.933L207.333,562.933L207.333,372.267L448.667,372.267ZM436.6,381.8L219.4,381.8L219.4,553.4L436.6,553.4L436.6,381.8Z" style="fill:rgb(0,255,255);"/>
    </g>
    <g transform="matrix(1,0,0,1,396,403)">
        <path d="M285.943,53.5C286.023,62.731 287.642,65.854 278.442,67.127C246.56,71.537 241.398,69.36 241.271,78.498C240.614,125.639 243.167,184.037 239.214,196.402C226.413,236.449 167.161,237.078 155.633,193.466C147.951,164.404 175.342,133.211 207.415,140.847C210.295,141.533 211.704,143.571 211.874,140.625C212.485,130.074 210.577,41.312 212.998,36.821C214.436,34.153 217.475,34.33 265.438,28.07C275.695,26.732 282.44,24.656 285.121,28.73C286.169,30.322 285.943,33.637 285.943,53.5Z" style="fill:rgb(0,255,255);fill-opacity:1;"/>
        <path d="M137.962,233.547C128.52,291.881 46.128,279.666 51.921,222.559C54.2,200.097 78.608,180.057 104.531,186.37C107.374,187.063 108.75,188.432 108.845,185.555C109.293,172.006 107.76,85.871 109.786,82.663C111.837,79.418 112.877,79.965 150.438,75.062C174.827,71.878 182.732,69.053 182.874,77.476C183.41,109.39 182.679,109.843 180.375,111.271C176.749,113.518 142.817,114.67 139.517,118.515C138.026,120.253 138.196,120.59 138.198,220.5C138.198,227.089 138.376,226.986 137.962,233.547Z" style="fill:rgb(255,192,203);fill-opacity:1;"/>
        <path d="M120.437,3.057C120.458,3.055 129.467,0.447 132.452,4.533C133.914,6.535 133.918,6.753 133.587,35.5C133.479,44.828 128.648,42.27 94.433,47.156C87.771,48.108 88.854,50.937 88.854,86.5C88.854,141.561 91.942,155.156 69.326,171.254C54.744,181.632 32.845,179.491 21.616,171.335C-17.79,142.709 5.898,82.245 57.526,93.356C60.067,93.903 59.467,91.382 59.467,71.5C59.467,14.329 58.779,12.526 63.609,10.785C67.564,9.36 115.882,3.6 120.437,3.057Z" style="fill:rgb(0,255,255);fill-opacity:1;"/>
    </g>
</svg>
